<svg width="390" height="175" viewBox="0 0 390 175" fill="none" xmlns="http://www.w3.org/2000/svg">
<path d="M49.51 0.723923C60.3914 1.26687 68.7337 10.1349 68.7337 20.9937H69.2778V0H0V0.723923H3.98982V109.839H0V110.382H69.2778V89.569H68.7337C68.7337 100.428 60.3914 109.296 49.51 109.839H15.4152V55.5528H37.1779C43.888 55.9148 49.3287 61.5252 49.3287 68.4024H49.8727V42.1603H49.3287C49.3287 48.8565 43.888 54.4669 37.1779 55.0099H15.4152V0.723923H49.51Z" fill="#CAD8C7"/>
<path d="M150.91 89.569C150.91 100.428 142.568 109.296 131.687 109.839H97.5919V0H82.1767V0.723923H86.1665V109.839H82.1767V110.382H151.454V89.569H150.91Z" fill="#CAD8C7"/>
<path d="M186.479 0.723923V0H167.074V0.723923H171.063V109.839H167.074V110.382H186.479V109.839H182.489V0.723923H186.479Z" fill="#CAD8C7"/>
<path d="M268.997 0V0.723923C279.697 1.26687 288.039 10.1349 288.039 20.8128V108.934L217.311 0H202.077V0.723923H206.067V109.839H202.077V110.382H225.834V109.839C214.953 109.296 206.611 100.428 206.611 89.569V1.44785L277.521 110.382H288.765V9.23001V0.723923H292.754V0H268.997Z" fill="#CAD8C7"/>
<path d="M378.044 109.839L338.146 0H326.539L333.068 20.6318L310.761 101.152C309.31 106.219 304.595 109.839 299.336 109.839V110.382H318.741V109.839H309.31L311.305 101.152L318.922 77.0895H353.561L366.8 110.382H382.215V109.839H378.044ZM318.922 76.5466L333.43 21.8987L353.38 76.5466H318.922Z" fill="#CAD8C7"/>
<path d="M6.76763 124.141C8.32017 124.141 9.53751 124.51 10.4196 125.25C11.3018 125.977 11.7428 126.993 11.7428 128.296C11.7428 129.587 11.3018 130.602 10.4196 131.341C9.53751 132.069 8.32017 132.433 6.76763 132.433H3.23912V136.465H2.33936V124.141H6.76763ZM6.76763 131.623C8.08494 131.623 9.09056 131.336 9.7845 130.76C10.4784 130.185 10.8254 129.364 10.8254 128.296C10.8254 127.227 10.4784 126.406 9.7845 125.831C9.09056 125.244 8.08494 124.95 6.76763 124.95H3.23912V131.623H6.76763Z" fill="#CAD8C7"/>
<path d="M27.2167 124.141V136.465H26.3169V130.602H18.0602V136.465H17.1605V124.141H18.0602V129.81H26.3169V124.141H27.2167Z" fill="#CAD8C7"/>
<path d="M39.151 136.553C37.9396 136.553 36.8458 136.283 35.8695 135.743C34.8933 135.191 34.1229 134.44 33.5584 133.489C33.0056 132.539 32.7292 131.476 32.7292 130.303C32.7292 129.129 33.0056 128.067 33.5584 127.116C34.1229 126.165 34.8933 125.42 35.8695 124.88C36.8458 124.328 37.9396 124.052 39.151 124.052C40.3625 124.052 41.4563 124.322 42.4326 124.862C43.4088 125.402 44.1733 126.148 44.7261 127.098C45.2906 128.049 45.5729 129.117 45.5729 130.303C45.5729 131.488 45.2906 132.556 44.7261 133.507C44.1733 134.458 43.4088 135.203 42.4326 135.743C41.4563 136.283 40.3625 136.553 39.151 136.553ZM39.151 135.725C40.1861 135.725 41.1211 135.491 41.9562 135.021C42.7913 134.552 43.4499 133.906 43.9322 133.084C44.4144 132.251 44.6555 131.324 44.6555 130.303C44.6555 129.281 44.4144 128.36 43.9322 127.538C43.4499 126.705 42.7913 126.054 41.9562 125.584C41.1211 125.115 40.1861 124.88 39.151 124.88C38.116 124.88 37.1751 125.115 36.3282 125.584C35.4932 126.054 34.8345 126.705 34.3523 127.538C33.8701 128.36 33.6289 129.281 33.6289 130.303C33.6289 131.324 33.8701 132.251 34.3523 133.084C34.8345 133.906 35.4932 134.552 36.3282 135.021C37.1751 135.491 38.116 135.725 39.151 135.725Z" fill="#CAD8C7"/>
<path d="M53.2673 124.95H48.8214V124.141H58.613V124.95H54.167V136.465H53.2673V124.95Z" fill="#CAD8C7"/>
<path d="M68.2936 136.553C67.0822 136.553 65.9883 136.283 65.0121 135.743C64.0359 135.191 63.2655 134.44 62.7009 133.489C62.1481 132.539 61.8717 131.476 61.8717 130.303C61.8717 129.129 62.1481 128.067 62.7009 127.116C63.2655 126.165 64.0359 125.42 65.0121 124.88C65.9883 124.328 67.0822 124.052 68.2936 124.052C69.5051 124.052 70.5989 124.322 71.5751 124.862C72.5513 125.402 73.3159 126.148 73.8687 127.098C74.4332 128.049 74.7155 129.117 74.7155 130.303C74.7155 131.488 74.4332 132.556 73.8687 133.507C73.3159 134.458 72.5513 135.203 71.5751 135.743C70.5989 136.283 69.5051 136.553 68.2936 136.553ZM68.2936 135.725C69.3286 135.725 70.2637 135.491 71.0988 135.021C71.9339 134.552 72.5925 133.906 73.0747 133.084C73.557 132.251 73.7981 131.324 73.7981 130.303C73.7981 129.281 73.557 128.36 73.0747 127.538C72.5925 126.705 71.9339 126.054 71.0988 125.584C70.2637 125.115 69.3286 124.88 68.2936 124.88C67.2586 124.88 66.3176 125.115 65.4708 125.584C64.6357 126.054 63.9771 126.705 63.4948 127.538C63.0126 128.36 62.7715 129.281 62.7715 130.303C62.7715 131.324 63.0126 132.251 63.4948 133.084C63.9771 133.906 64.6357 134.552 65.4708 135.021C66.3176 135.491 67.2586 135.725 68.2936 135.725Z" fill="#CAD8C7"/>
<path d="M89.0393 130.355H89.9038V134.968C89.3627 135.485 88.7041 135.878 87.9278 136.148C87.1633 136.418 86.3517 136.553 85.4931 136.553C84.2699 136.553 83.1643 136.283 82.1763 135.743C81.2001 135.203 80.4297 134.458 79.8652 133.507C79.3124 132.556 79.036 131.488 79.036 130.303C79.036 129.117 79.3124 128.049 79.8652 127.098C80.4297 126.148 81.2001 125.402 82.1763 124.862C83.1643 124.322 84.2758 124.052 85.5108 124.052C86.4164 124.052 87.2456 124.199 87.9984 124.493C88.7629 124.774 89.4157 125.191 89.9567 125.743L89.3921 126.341C88.8746 125.825 88.2924 125.455 87.6455 125.232C87.0104 124.997 86.3047 124.88 85.5284 124.88C84.4699 124.88 83.5113 125.115 82.6527 125.584C81.8059 126.054 81.1413 126.705 80.6591 127.538C80.1769 128.36 79.9357 129.281 79.9357 130.303C79.9357 131.312 80.1769 132.233 80.6591 133.067C81.1531 133.888 81.8235 134.54 82.6703 135.021C83.5172 135.491 84.4699 135.725 85.5284 135.725C86.9398 135.725 88.1101 135.35 89.0393 134.599V130.355Z" fill="#CAD8C7"/>
<path d="M104.819 136.465L101.873 132.345C101.438 132.404 101.038 132.433 100.673 132.433H97.1449V136.465H96.2452V124.141H100.673C102.226 124.141 103.443 124.51 104.325 125.25C105.208 125.977 105.649 126.993 105.649 128.296C105.649 129.27 105.396 130.091 104.89 130.76C104.396 131.418 103.684 131.881 102.755 132.151L105.843 136.465H104.819ZM100.673 131.641C101.991 131.641 102.996 131.353 103.69 130.778C104.384 130.191 104.731 129.364 104.731 128.296C104.731 127.227 104.384 126.406 103.69 125.831C102.996 125.244 101.991 124.95 100.673 124.95H97.1449V131.641H100.673Z" fill="#CAD8C7"/>
<path d="M118.964 132.996H111.801L110.231 136.465H109.261L114.941 124.141H115.841L121.522 136.465H120.552L118.964 132.996ZM118.629 132.239L115.382 125.126L112.154 132.239H118.629Z" fill="#CAD8C7"/>
<path d="M130.574 124.141C132.127 124.141 133.344 124.51 134.226 125.25C135.108 125.977 135.549 126.993 135.549 128.296C135.549 129.587 135.108 130.602 134.226 131.341C133.344 132.069 132.127 132.433 130.574 132.433H127.046V136.465H126.146V124.141H130.574ZM130.574 131.623C131.891 131.623 132.897 131.336 133.591 130.76C134.285 130.185 134.632 129.364 134.632 128.296C134.632 127.227 134.285 126.406 133.591 125.831C132.897 125.244 131.891 124.95 130.574 124.95H127.046V131.623H130.574Z" fill="#CAD8C7"/>
<path d="M151.023 124.141V136.465H150.123V130.602H141.867V136.465H140.967V124.141H141.867V129.81H150.123V124.141H151.023Z" fill="#CAD8C7"/>
<path d="M161.528 132.222V136.465H160.629V132.222L155.654 124.141H156.641L161.105 131.394L165.569 124.141H166.504L161.528 132.222Z" fill="#CAD8C7"/>
<path d="M177.07 154.693C177.542 157.304 178.099 159.188 178.914 160.814C179.472 161.884 180.201 163.083 181.488 163.811C182.174 164.153 182.903 164.367 183.676 164.367C184.362 164.367 185.048 164.196 185.777 163.939C187.45 163.254 188.909 161.842 189.809 160.044C189.981 159.701 189.938 159.145 189.595 158.931H189.552C189.423 158.845 189.166 158.717 188.909 158.717C188.737 158.717 188.608 158.76 188.48 158.802C188.137 158.974 187.793 159.188 187.45 159.402H187.407C187.322 159.487 187.193 159.53 187.107 159.616C186.163 160.172 185.348 160.6 184.619 160.6C183.547 160.6 182.861 159.701 182.174 158.374C181.745 157.518 181.402 156.662 181.231 155.763C180.844 154.094 180.416 152.167 180.201 150.156C179.729 145.875 179.729 141.081 180.201 135.045C180.802 127.126 182.131 118.693 184.233 109.233C187.622 93.9938 196.544 62.7881 203.364 46.6502C203.536 46.3077 203.793 46.2649 204.351 46.2221C204.994 46.1365 206.324 46.0081 206.796 45.8796H206.882C207.225 45.7512 207.611 45.4516 207.868 45.0235C208.126 44.5955 208.254 44.1674 208.211 43.8249C208.168 43.4825 207.997 43.1829 207.697 43.0116C207.525 42.926 207.311 42.8832 207.096 42.8832C206.967 42.8832 206.796 42.8832 206.667 42.926L206.624 42.9688C206.453 43.0116 206.281 43.0544 206.067 43.14C205.638 43.2685 205.252 43.4397 204.866 43.4825C204.565 43.5681 204.265 43.6537 204.008 43.6965C203.707 43.7821 203.364 43.8678 203.064 43.9106L199.375 44.5527C198.002 44.7667 197.96 45.4516 197.96 45.6656C197.917 46.0081 198.002 46.2649 198.26 46.4361C198.388 46.5217 198.603 46.5645 198.817 46.5645C198.903 46.5645 198.946 46.5645 198.989 46.5645H199.032H199.075H199.161H199.976L200.748 46.5217L200.319 47.2494C199.761 48.234 199.289 49.2613 198.946 50.1175C198.002 52.3006 193.155 65.0996 188.308 81.0235C183.804 95.9629 178.099 117.794 176.512 137.014C175.912 143.692 176.126 149.342 177.07 154.693Z" fill="#586157"/>
<path d="M225.798 106.707C225.755 106.664 225.755 106.664 225.713 106.664C225.67 106.664 225.67 106.622 225.627 106.622C225.584 106.622 225.584 106.622 225.584 106.622C225.541 106.622 225.498 106.622 225.455 106.622C225.198 106.664 224.983 106.707 224.812 106.793C224.597 106.921 224.469 107.007 224.297 107.093L224.083 107.264C224.04 107.264 223.997 107.264 223.997 107.307C223.911 107.349 223.868 107.392 223.825 107.435C223.225 107.863 222.667 108.334 222.152 108.848C221.595 109.318 221.08 109.832 220.565 110.303C218.463 112.358 216.533 114.498 214.731 116.724C212.93 118.95 211.171 121.219 209.498 123.487C207.825 125.799 206.238 128.153 204.78 130.55C204.651 130.764 204.48 130.893 204.351 131.064C204.179 131.15 204.008 131.235 203.836 131.235C203.665 131.192 203.536 131.15 203.364 131.021C203.236 130.893 203.107 130.764 203.021 130.593C202.85 130.294 202.721 129.994 202.635 129.651C202.635 129.566 202.592 129.523 202.592 129.48C202.463 129.095 202.335 128.71 202.206 128.282C201.992 127.511 201.82 126.698 201.691 125.842C201.648 125.285 201.563 124.772 201.52 124.215C201.477 123.873 201.477 123.573 201.434 123.273L200.405 112.957H200.362C200.018 112.871 199.675 112.914 199.375 113.085C199.032 113.299 198.817 113.556 198.646 113.856C198.346 114.455 198.131 115.012 198.002 115.611C197.788 116.81 197.702 117.965 197.659 119.121C197.659 120.277 197.659 121.433 197.745 122.546C197.831 123.659 197.96 124.772 198.088 125.884C198.217 126.997 198.388 128.11 198.603 129.181C198.775 130.294 199.075 131.364 199.59 132.348C199.847 132.819 200.19 133.247 200.619 133.59C201.048 133.975 201.563 134.189 202.163 134.317C202.764 134.36 203.407 134.36 204.051 134.232C204.351 134.146 204.694 134.018 204.994 133.846C205.295 133.675 205.595 133.461 205.852 133.247C206.367 132.776 206.796 132.263 207.139 131.663C207.396 131.321 207.611 130.936 207.825 130.593C207.954 130.422 208.04 130.251 208.168 130.037C208.812 128.967 209.498 127.896 210.185 126.826C211.557 124.686 213.016 122.588 214.517 120.534C216.018 118.479 217.648 116.467 219.364 114.584L220.651 113.128C220.994 112.743 221.337 112.315 221.68 111.93C221.766 111.844 221.852 111.758 221.938 111.673C222.753 110.645 223.654 109.789 224.64 109.019V108.976C224.726 108.89 224.855 108.805 224.94 108.719C225.112 108.591 225.326 108.462 225.498 108.248C225.67 108.077 225.755 107.906 225.884 107.735C225.927 107.649 225.97 107.563 226.013 107.435C226.056 107.307 226.056 107.178 226.056 107.05C226.056 106.879 225.97 106.793 225.798 106.707Z" fill="#586157"/>
<path d="M255.096 127.169C254.795 127.169 254.28 127.468 253.508 128.025C252.779 128.538 251.835 129.138 250.677 129.737C249.519 130.379 248.189 130.807 246.645 131.107C243.643 131.62 241.627 130.593 240.597 128.068C240.425 127.64 240.297 127.211 240.125 126.783C239.696 125.499 239.182 124.258 238.581 123.102C236.007 118.736 232.576 118.779 228.243 123.188C227.857 123.659 227.385 124.172 226.914 124.772C226.399 125.456 225.927 126.013 225.455 126.527C225.026 127.04 224.64 127.254 224.34 127.254C223.911 127.297 223.654 126.912 223.696 126.141C223.696 125.371 223.782 124.515 223.911 123.616C223.997 123.145 224.04 122.717 224.083 122.374C224.125 121.989 224.168 121.604 224.211 121.261C224.34 120.234 224.383 119.378 224.254 118.736C224.168 118.051 223.739 117.751 222.967 117.708C222.667 117.751 222.367 117.837 222.109 118.094C221.809 118.308 221.595 118.522 221.423 118.779C221.251 119.078 221.166 119.249 221.123 119.378C221.08 120.063 220.994 120.919 220.951 121.861C220.951 121.903 220.951 121.946 220.951 121.946C220.865 122.974 220.78 124.001 220.694 124.986C220.565 126.398 220.479 127.768 220.394 129.181C220.394 129.395 220.394 129.609 220.394 129.823C220.265 130.722 220.308 131.535 220.479 132.263C220.694 132.99 221.337 133.461 222.367 133.632C223.353 133.718 224.125 133.504 224.726 132.947C225.284 132.391 225.798 131.749 226.227 131.021C226.399 130.807 226.528 130.55 226.699 130.336C227.085 129.78 227.471 129.223 227.857 128.667C228.887 126.955 230.088 125.371 231.503 123.915C232.661 122.76 233.519 122.16 234.163 122.16C234.806 122.16 235.407 122.717 235.964 123.915C236.265 124.557 236.565 125.242 236.779 125.97C236.951 126.398 237.08 126.826 237.251 127.211C238.238 129.737 239.482 131.364 241.112 132.091C242.699 132.776 244.972 132.691 247.889 131.792C248.704 131.535 249.39 131.321 249.948 131.064C250.463 130.807 251.02 130.55 251.535 130.208C252.093 129.908 252.693 129.48 253.294 129.009C253.894 128.538 254.409 128.11 254.795 127.725C255.138 127.383 255.267 127.169 255.096 127.169Z" fill="#586157"/>
<path d="M284.865 126.013C284.822 126.013 284.822 125.97 284.779 125.97C284.221 125.97 283.664 126.141 283.106 126.527V126.484C282.119 127.169 281.133 127.896 280.189 128.624C279.202 129.352 278.259 130.122 277.315 130.893C276.371 131.62 275.428 132.434 274.527 133.204C273.712 133.889 272.94 134.617 272.211 135.345C272.554 133.675 272.811 132.049 272.983 130.379C273.026 129.908 273.068 129.48 273.068 129.009V127.682C273.068 126.826 273.026 125.927 272.897 125.071C272.725 124.215 272.468 123.402 272.125 122.631C271.825 121.818 271.353 121.133 270.666 120.576C270.323 120.32 269.894 120.191 269.337 120.191C268.822 120.277 268.307 120.491 267.921 120.876C267.278 121.518 266.763 122.246 266.377 123.016C266.291 123.145 266.248 123.23 266.162 123.359C265.691 124.215 265.133 125.028 264.532 125.799C264.232 126.227 263.932 126.569 263.546 126.869C263.203 127.126 262.774 127.383 262.345 127.597C261.916 127.768 261.487 127.896 261.058 127.939C260.629 127.939 260.243 127.896 259.857 127.725C259.514 127.554 259.171 127.34 258.87 127.083C258.57 126.869 258.313 126.569 258.141 126.227C257.841 125.499 257.669 124.686 257.755 123.787C257.798 122.931 257.927 122.032 258.227 121.176C258.398 120.748 258.57 120.32 258.784 119.849C258.87 119.763 258.913 119.635 258.956 119.506C259.128 119.207 259.256 118.864 259.385 118.522C259.514 118.265 259.557 118.008 259.514 117.751C259.471 117.452 259.385 117.238 259.171 117.066C258.999 116.938 258.827 116.81 258.613 116.724C258.398 116.596 258.184 116.553 257.884 116.553C257.626 116.51 257.326 116.596 257.026 116.81C256.811 117.024 256.597 117.238 256.468 117.494C256.211 117.923 255.996 118.393 255.868 118.864C255.524 119.763 255.31 120.705 255.096 121.604C254.667 123.487 254.624 125.285 255.01 126.997C255.267 127.854 255.653 128.624 256.254 129.223C256.339 129.352 256.468 129.48 256.597 129.566C256.64 129.609 256.683 129.609 256.726 129.651C256.811 129.694 256.854 129.737 256.94 129.78C257.026 129.865 257.154 129.951 257.283 129.994L257.583 130.122L257.884 130.251C258.055 130.336 258.227 130.379 258.398 130.422C258.441 130.422 258.484 130.465 258.527 130.465C259.385 130.722 260.329 130.807 261.272 130.722C262.259 130.636 263.203 130.336 264.146 129.78C265.09 129.223 265.862 128.581 266.548 127.768C267.149 127.04 267.664 126.27 268.093 125.542C268.136 125.414 268.221 125.328 268.264 125.242C268.393 125.071 268.522 124.857 268.65 124.686C268.693 124.6 268.736 124.557 268.779 124.515C268.822 124.472 268.822 124.472 268.865 124.429C268.865 124.386 268.908 124.386 268.951 124.343C268.993 124.301 269.036 124.258 269.079 124.258L269.122 124.215L269.165 124.172H269.208C269.208 124.172 269.208 124.172 269.251 124.172C269.251 124.172 269.251 124.172 269.294 124.172C269.294 124.172 269.337 124.172 269.337 124.215C269.465 124.258 269.551 124.386 269.594 124.6C269.766 125.157 269.851 125.842 269.851 126.527C269.894 126.698 269.894 126.912 269.894 127.083C269.937 127.939 269.937 128.795 269.937 129.694C269.894 130.55 269.808 131.406 269.723 132.305V132.348C269.594 134.103 269.337 135.858 268.865 137.613C268.05 138.384 267.235 139.197 266.42 139.968C265.648 140.781 264.876 141.594 264.103 142.408C264.061 142.45 264.018 142.493 263.975 142.579C262.345 144.291 260.801 146.046 259.299 147.844C257.755 149.685 256.339 151.525 255.01 153.452C253.68 155.378 252.479 157.347 251.321 159.359C250.163 161.414 249.262 163.511 248.661 165.651C248.361 166.722 248.147 167.792 248.061 168.905C248.018 169.975 248.104 171.002 248.447 171.987C248.618 172.458 248.833 172.928 249.133 173.314C249.476 173.742 249.819 174.084 250.248 174.341C250.677 174.598 251.192 174.812 251.707 174.94C252.264 175.026 252.822 175.026 253.423 174.898C254.581 174.641 255.653 174.127 256.64 173.357C257.583 172.586 258.441 171.73 259.171 170.788C262.002 166.978 264.189 162.955 265.733 158.674C267.321 154.479 268.693 150.284 269.851 146.046C270.152 144.976 270.452 143.906 270.752 142.879C270.881 142.408 270.967 141.98 271.095 141.552C271.224 140.909 271.396 140.31 271.61 139.711C271.782 139.197 271.996 138.684 272.296 138.213C272.425 137.999 272.597 137.785 272.768 137.571L273.369 136.928C274.141 136.03 274.913 135.173 275.728 134.317C277.358 132.605 279.031 130.978 280.79 129.437C281.69 128.624 282.591 127.896 283.492 127.169C283.706 126.997 283.921 126.869 284.135 126.698C284.178 126.698 284.178 126.698 284.221 126.655L284.564 126.398L284.736 126.313L284.865 126.227C284.907 126.227 284.907 126.184 284.907 126.184C284.907 126.141 284.95 126.098 284.907 126.056C284.907 126.013 284.907 126.013 284.907 126.013H284.865ZM256.94 168.605C256.811 168.776 256.726 168.905 256.597 169.033C256.168 169.675 255.696 170.232 255.224 170.788C254.881 171.131 254.538 171.43 254.195 171.687C253.809 171.944 253.423 172.072 252.994 172.115C252.608 172.115 252.264 172.03 251.921 171.858C251.578 171.687 251.321 171.43 251.106 171.131C250.72 170.531 250.549 169.804 250.506 168.99C250.463 168.177 250.549 167.364 250.763 166.508C250.806 166.294 250.849 166.122 250.935 165.908L251.149 165.266C251.192 165.138 251.235 165.009 251.278 164.881C251.364 164.624 251.492 164.324 251.578 164.025L252.136 162.826L252.736 161.585C252.865 161.328 252.994 161.028 253.165 160.772C253.208 160.643 253.294 160.515 253.38 160.386C253.38 160.343 253.423 160.301 253.465 160.215C253.637 159.873 253.852 159.53 254.023 159.23C255.953 156.106 258.141 153.109 260.543 150.284C261.744 148.829 262.988 147.459 264.275 146.089C265.304 145.019 266.334 143.949 267.363 142.921C266.205 147.116 264.918 151.311 263.46 155.506C263.031 156.619 262.602 157.732 262.13 158.888C261.959 159.359 261.744 159.83 261.53 160.343C261.487 160.386 261.444 160.472 261.444 160.557C261.272 160.9 261.101 161.285 260.886 161.628C260.801 161.799 260.715 162.013 260.629 162.184C259.557 164.41 258.356 166.55 256.94 168.648V168.605ZM284.779 126.056C284.779 126.013 284.779 126.013 284.779 126.013C284.779 126.056 284.736 126.056 284.736 126.056H284.779Z" fill="#586157"/>
<path d="M325.958 78.4552L332.649 77.8987H332.692C332.735 77.8987 332.735 77.8559 332.735 77.8559C332.95 77.7275 333.164 77.5562 333.336 77.3422C333.379 77.2566 333.379 77.2138 333.422 77.1282C333.422 76.9998 333.422 76.957 333.379 76.8713C333.293 76.7857 333.207 76.7001 333.078 76.6573C332.649 76.5289 332.263 76.4861 331.834 76.4861C331.792 76.4861 331.749 76.4861 331.706 76.4861C330.934 76.4861 330.119 76.5289 329.347 76.5717C329.218 76.6145 329.089 76.6145 328.961 76.6145V76.5717L306.698 77.8559L310.601 62.4885L311.502 58.5931L311.931 56.6668C312.06 56.2388 312.146 55.8107 312.189 55.4254C312.231 55.1686 312.274 54.9546 312.317 54.6977C312.618 53.4135 312.789 52.1294 312.875 50.8024C312.918 50.1603 312.875 49.5182 312.66 48.9189C312.575 48.6192 312.36 48.3624 312.103 48.1484C311.845 47.9771 311.502 47.8915 311.116 47.8915C310.73 47.9343 310.387 48.0628 310.044 48.2768C309.701 48.4908 309.4 48.7477 309.186 49.0473C308.714 49.6466 308.371 50.2459 308.071 50.888L307.685 51.8725L307.513 52.3434L307.341 52.8571C307.127 53.4992 306.955 54.1412 306.741 54.7833C306.098 57.0093 305.497 59.2352 305.025 61.4611C304.939 61.8464 304.854 62.1888 304.768 62.5741L301.208 77.9415C300.993 77.9843 300.779 77.9843 300.564 78.0271C300.564 78.0271 300.521 78.0271 300.478 78.0271L299.578 78.1555L297.776 78.3696L296.875 78.4552L295.974 78.498L294.173 78.5836C291.771 78.712 289.369 78.8832 286.924 79.0545C282.119 79.4397 277.272 79.8678 272.425 80.3386C271.31 80.4671 270.152 80.5955 269.036 80.6811C265.347 81.0664 261.616 81.4516 257.927 81.8797C253.079 82.4362 248.189 83.2923 243.299 84.4052V84.9617C244.972 84.8333 246.688 84.6621 248.361 84.5337C251.492 84.234 254.581 83.9772 257.669 83.7203L272.082 82.479L286.495 81.2804L293.658 80.6811C294.044 80.6811 294.43 80.6383 294.816 80.5955C295.631 80.5099 296.446 80.4671 297.261 80.4243C297.304 80.3815 297.347 80.3815 297.347 80.3815C298.419 80.2958 299.492 80.253 300.521 80.2958C300.264 81.9225 299.964 83.5491 299.578 85.2186L298.462 90.4409L296.275 100.971L291.899 121.946L290.784 127.211C290.398 128.967 290.055 130.679 289.712 132.434L287.696 142.964C287.61 143.521 287.481 144.12 287.395 144.676C286.881 147.587 286.28 150.498 285.637 153.409C285.208 155.164 284.736 156.919 284.221 158.631C283.921 159.487 283.621 160.386 283.32 161.242C283.235 161.456 283.149 161.67 283.106 161.927C283.063 162.184 283.063 162.441 283.192 162.698C283.32 162.955 283.535 163.083 283.792 163.169C284.007 163.254 284.264 163.297 284.564 163.211C284.907 163.126 285.165 162.955 285.336 162.698C285.551 162.484 285.68 162.27 285.808 162.056C286.023 161.628 286.237 161.2 286.409 160.772C286.752 159.873 287.095 159.016 287.352 158.118C287.867 156.405 288.296 154.65 288.682 152.938C288.682 152.938 288.682 152.895 288.682 152.852C289.454 149.342 290.184 145.875 290.827 142.365L292.843 131.877C292.929 131.321 293.015 130.764 293.143 130.251C293.358 129.009 293.572 127.811 293.83 126.612L295.202 121.39L297.948 110.902L300.693 100.415L306.269 79.6538L319.352 78.8832C319.652 78.8832 319.995 78.8404 320.339 78.8404C322.226 78.712 324.07 78.5836 325.958 78.4552ZM302.623 85.9891L302.409 86.6312C302.623 85.7322 302.795 84.7905 302.966 83.8916C303.009 83.7203 303.052 83.5063 303.095 83.3351L303.438 81.5372C303.481 81.2376 303.567 80.9807 303.61 80.6811C303.695 80.4243 303.738 80.1674 303.824 79.9534C303.953 79.9106 304.039 79.9106 304.167 79.8678L303.824 81.152C303.781 81.3232 303.738 81.4516 303.738 81.58C303.61 81.9653 303.524 82.3505 303.395 82.7786C303.266 83.1639 303.138 83.5919 303.052 83.9772C303.009 84.1056 303.009 84.234 302.966 84.3624C302.838 84.9189 302.752 85.4326 302.623 85.9891ZM305.583 74.2602L304.639 77.6847H304.382L304.939 74.8166C305.068 74.1317 305.24 73.4469 305.411 72.762C305.497 72.3767 305.583 72.0342 305.669 71.649L307.084 65.3137L307.813 62.146C307.856 61.8036 307.942 61.5039 308.028 61.1615C308.156 60.4338 308.328 59.7061 308.543 58.9783C308.585 58.7643 308.628 58.5503 308.714 58.3363C308.8 58.0366 308.886 57.6942 308.929 57.3517C308.971 57.2233 308.971 57.0949 309.014 56.9665V56.838C309.014 56.7952 309.014 56.7952 309.014 56.7952C309.014 56.7952 309.014 56.7952 309.014 56.7524L309.057 56.5812L309.186 55.8107C309.229 55.5967 309.272 55.4254 309.272 55.2542C309.443 54.3553 309.658 53.4992 309.829 52.643H309.872C309.958 52.429 310.044 52.215 310.13 52.0009C310.258 51.6157 310.43 51.1876 310.601 50.8024V50.7596V50.8024C310.601 51.102 310.601 51.4016 310.601 51.7013C310.559 52.3434 310.516 52.9427 310.43 53.5848L310.13 55.4682C309.958 56.624 309.744 57.7798 309.486 58.9355C309.486 59.0212 309.443 59.1068 309.443 59.1924C309.143 60.4766 308.886 61.7179 308.543 62.9593L306.569 70.4932L305.583 74.2602ZM310.601 49.989V49.9462C310.601 49.9462 310.601 49.9462 310.601 49.989Z" fill="#586157"/>
<path d="M329.99 126.612C329.776 126.569 329.561 126.569 329.347 126.569C329.218 126.569 329.089 126.612 328.961 126.612C328.918 126.612 328.832 126.612 328.789 126.612C328.574 126.655 328.403 126.698 328.188 126.698C328.103 126.741 328.06 126.741 327.974 126.741C327.845 126.783 327.717 126.783 327.588 126.826C326.816 126.997 326.044 127.211 325.314 127.468C323.77 127.939 322.226 128.538 320.725 129.181C319.223 129.78 317.722 130.465 316.264 131.192C314.848 131.92 313.475 132.648 312.103 133.376C311.888 132.947 311.674 132.477 311.416 132.091L310.601 130.636C310.044 129.737 309.572 128.752 309.143 127.768C308.971 127.254 308.843 126.698 308.8 126.184C308.8 125.585 308.886 125.028 309.057 124.472C309.229 123.873 309.486 123.316 309.786 122.802C310.13 122.246 310.516 121.732 310.945 121.261C311.416 120.833 311.888 120.405 312.446 120.063C312.489 120.02 312.532 120.02 312.575 119.977C312.789 119.849 313.004 119.72 313.261 119.592H313.304C313.39 119.549 313.475 119.506 313.561 119.464C313.518 119.506 313.518 119.506 313.475 119.549C313.475 119.592 313.433 119.635 313.39 119.678C313.175 119.934 312.961 120.191 312.746 120.405C312.618 120.576 312.532 120.705 312.403 120.833C312.06 121.219 311.76 121.561 311.459 121.946C311.459 121.946 311.459 121.946 311.459 121.989C311.331 122.075 311.245 122.246 311.159 122.374C311.116 122.417 311.073 122.46 311.073 122.546C311.073 122.546 311.03 122.546 311.03 122.588V122.631C311.03 122.674 311.03 122.717 311.03 122.802C311.03 122.845 311.073 122.888 311.116 122.888C311.116 122.931 311.159 122.931 311.202 122.931L311.245 122.974H311.288H311.331L311.374 122.931C311.416 122.931 311.459 122.931 311.459 122.888C311.502 122.888 311.502 122.888 311.502 122.888C311.545 122.888 311.545 122.888 311.545 122.888L311.674 122.802C311.76 122.76 311.888 122.717 311.974 122.674C312.189 122.588 312.36 122.46 312.575 122.374C312.66 122.332 312.746 122.289 312.832 122.246C313.004 122.118 313.218 121.989 313.433 121.861L313.862 121.604L314.29 121.304C314.505 121.176 314.676 121.047 314.891 120.876C314.977 120.833 315.02 120.748 315.105 120.705C315.148 120.662 315.234 120.619 315.277 120.576C315.492 120.405 315.706 120.191 315.878 119.977C316.392 119.506 316.821 118.95 317.164 118.351C317.336 118.051 317.508 117.708 317.593 117.366C317.679 117.024 317.679 116.681 317.593 116.339C317.465 115.996 317.25 115.782 316.907 115.611C316.607 115.525 316.264 115.483 315.963 115.483C315.363 115.44 314.719 115.525 314.033 115.654C313.39 115.825 312.746 116.039 312.146 116.339C310.902 116.981 309.829 117.837 308.843 118.821C307.899 119.849 307.127 120.962 306.526 122.16C305.926 123.359 305.583 124.6 305.54 125.884C305.54 126.484 305.626 127.083 305.754 127.682C305.926 128.239 306.14 128.752 306.355 129.266C306.741 129.994 307.127 130.722 307.556 131.449C307.685 131.663 307.813 131.92 307.942 132.134C307.942 132.22 307.985 132.263 308.028 132.305C308.242 132.733 308.5 133.162 308.714 133.59C308.843 133.804 308.929 134.06 309.057 134.317C309.143 134.489 309.229 134.66 309.272 134.831C309.014 135.045 308.757 135.259 308.5 135.43C308.414 135.473 308.371 135.516 308.285 135.559C307.899 135.858 307.47 136.158 307.084 136.5C306.312 137.142 305.583 137.87 304.896 138.598C303.524 140.096 302.366 141.723 301.422 143.478C300.993 144.334 300.607 145.233 300.264 146.132C299.964 147.031 299.749 147.972 299.663 148.871C299.62 149.342 299.663 149.813 299.792 150.241C299.878 150.669 300.092 151.055 300.35 151.397C300.95 152.082 301.679 152.467 302.623 152.638C303.567 152.81 304.51 152.596 305.454 152.125C306.398 151.611 307.213 151.012 307.942 150.327C308.714 149.642 309.4 148.957 310.087 148.186C310.773 147.459 311.374 146.645 311.888 145.789C312.403 144.933 312.832 144.077 313.175 143.178C313.475 142.236 313.69 141.338 313.776 140.439C313.861 139.54 313.819 138.641 313.69 137.785L313.347 135.387C314.548 134.446 315.835 133.59 317.164 132.819C318.58 132.049 319.953 131.321 321.411 130.636C322.827 129.994 324.242 129.352 325.7 128.752L327.888 127.896C328.231 127.725 328.617 127.597 328.961 127.425C329.175 127.34 329.347 127.254 329.518 127.169C329.604 127.126 329.69 127.083 329.776 126.997C329.861 126.997 329.904 126.955 329.947 126.912C329.947 126.869 329.99 126.826 330.033 126.783C330.033 126.741 330.033 126.741 330.033 126.698V126.655C330.033 126.612 330.033 126.612 330.033 126.612H329.99ZM310.301 137.571C310.516 138.041 310.601 138.598 310.601 139.197C310.601 139.497 310.601 139.839 310.601 140.182L310.516 141.166V141.252C310.473 141.252 310.473 141.252 310.473 141.295C310.301 141.766 310.13 142.194 309.915 142.664C309.786 142.964 309.658 143.264 309.486 143.563C309.4 143.777 309.315 143.949 309.186 144.163C308.971 144.676 308.671 145.147 308.328 145.618C307.985 146.089 307.642 146.517 307.256 146.945C306.87 147.373 306.441 147.758 306.012 148.144C305.883 148.272 305.711 148.401 305.583 148.529C305.497 148.615 305.454 148.657 305.368 148.7C305.154 148.871 304.939 149.043 304.682 149.171C304.468 149.299 304.21 149.385 303.996 149.471C303.867 149.513 303.738 149.556 303.653 149.556C303.61 149.556 303.567 149.556 303.567 149.556C303.524 149.556 303.524 149.556 303.481 149.513C303.438 149.471 303.395 149.428 303.352 149.342C303.309 149.257 303.309 149.171 303.266 149.043C303.224 148.829 303.224 148.615 303.224 148.358C303.266 148.144 303.309 147.887 303.352 147.673C303.352 147.587 303.395 147.544 303.395 147.502C303.481 147.288 303.524 147.074 303.61 146.902C303.781 146.389 303.953 145.875 304.21 145.361C304.639 144.377 305.197 143.392 305.84 142.45C306.484 141.509 307.17 140.61 307.985 139.754C308.671 138.94 309.443 138.213 310.301 137.571Z" fill="#586157"/>
<path d="M386.869 47.8487C386.311 45.4516 385.196 43.3541 383.609 41.6418C381.979 39.8868 380.005 38.6454 377.603 37.8749C375.244 37.1472 372.756 36.8475 370.097 37.0188C368.81 37.1044 367.48 37.2328 366.15 37.4896C364.821 37.7893 363.491 38.1317 362.204 38.6026C359.545 39.5015 357.014 40.7429 354.612 42.2411C352.21 43.7821 349.893 45.4944 347.791 47.4635C343.502 51.3588 339.984 55.7679 337.153 60.6478C334.322 65.4849 332.092 70.4932 330.462 75.5872C328.875 80.7239 327.674 85.8178 326.944 90.9546C326.687 92.196 326.515 93.4802 326.387 94.7643L326.301 95.7061L326.215 96.2198V96.6906L326.129 98.5741C326.087 99.1734 326.044 99.7299 326.087 100.286C326.087 100.372 326.087 100.415 326.087 100.458L326.044 102.341C326.087 103.582 326.129 104.824 326.172 106.065C326.473 110.988 327.03 115.868 327.802 120.662C328.532 125.456 329.475 130.165 330.633 134.831C330.633 134.874 330.676 134.917 330.676 134.959C330.891 136.115 331.363 137.142 332.049 138.084C332.092 138.127 332.092 138.127 332.135 138.17C332.135 138.17 332.178 138.213 332.221 138.255L332.392 138.384C332.521 138.469 332.607 138.512 332.735 138.555C332.778 138.598 332.821 138.598 332.821 138.641C333.164 138.726 333.507 138.769 333.893 138.684C334.623 138.469 335.266 138.127 335.824 137.656C336.424 137.185 336.982 136.714 337.497 136.244C338.011 135.73 338.483 135.216 338.998 134.703C339.899 133.761 340.757 132.776 341.614 131.749C341.958 132.263 342.344 132.648 342.816 132.99C343.373 133.376 343.974 133.675 344.66 133.804C346.076 134.103 347.491 134.146 348.95 133.975C349.378 133.932 349.807 133.932 350.236 133.889C351.266 133.804 352.295 133.718 353.325 133.632C354.054 133.547 354.783 133.461 355.512 133.29C355.898 133.247 356.285 133.119 356.671 132.99C356.842 132.947 357.057 132.819 357.228 132.691C357.314 132.648 357.4 132.562 357.486 132.477C357.614 132.391 357.657 132.263 357.7 132.134V132.091C357.7 132.006 357.7 131.963 357.657 131.877C357.614 131.835 357.571 131.749 357.528 131.749C357.443 131.663 357.357 131.62 357.228 131.62C357.057 131.578 356.842 131.535 356.628 131.535C356.285 131.535 355.941 131.578 355.598 131.578C355.555 131.578 355.512 131.578 355.47 131.578C354.826 131.621 354.226 131.62 353.582 131.62C353.453 131.62 353.325 131.62 353.153 131.62C351.652 131.62 350.108 131.578 348.606 131.535C348.392 131.535 348.135 131.492 347.92 131.492C347.362 131.492 346.848 131.449 346.376 131.406C345.99 131.364 345.647 131.278 345.389 131.107C345.089 130.936 344.917 130.722 344.874 130.379C344.832 129.694 345.046 128.967 345.432 128.239C345.647 127.811 345.904 127.383 346.204 126.955C346.376 126.698 346.547 126.398 346.719 126.098C346.933 125.713 347.105 125.328 347.234 124.943C347.277 124.729 347.277 124.515 347.277 124.301C347.191 124.087 347.105 123.915 346.933 123.787C346.805 123.659 346.633 123.616 346.419 123.573C346.204 123.53 345.99 123.53 345.732 123.616C345.303 123.83 344.96 124.087 344.66 124.386C343.373 125.499 342.172 126.698 341.014 128.025C339.899 129.266 338.826 130.593 337.797 131.963C337.325 132.605 336.767 133.247 336.167 133.846C335.867 134.103 335.523 134.403 335.223 134.66C335.052 134.745 334.88 134.874 334.708 135.002L334.451 135.131C334.408 135.173 334.322 135.216 334.279 135.302H334.237C334.194 135.173 334.151 135.088 334.108 134.959C334.065 134.917 334.065 134.874 334.022 134.831C333.936 134.66 333.851 134.489 333.808 134.274C333.636 133.932 333.507 133.547 333.422 133.119C333.25 132.348 333.078 131.535 332.95 130.679C332.864 129.865 332.692 129.052 332.521 128.239C332.478 128.025 332.392 127.811 332.349 127.64C332.178 127.083 332.092 126.484 332.006 125.927C336.724 122.845 341.271 119.506 345.604 115.868C349.936 112.186 354.14 108.334 358.172 104.353C360.188 102.341 362.161 100.286 364.091 98.2316C366.022 96.1341 367.909 93.9938 369.711 91.8107C373.314 87.4445 376.531 82.8214 379.276 77.9843C382.021 73.1472 384.209 68.1389 385.753 63.0021C386.483 60.4338 386.997 57.8654 387.212 55.297C387.512 52.7286 387.383 50.2459 386.869 47.8487ZM331.577 124.386C331.277 123.616 331.105 122.76 331.062 121.861C331.019 121.647 330.977 121.433 330.977 121.176C330.891 120.448 330.805 119.72 330.676 118.993L330.247 116.167C330.119 115.525 330.033 114.84 329.947 114.198C329.904 113.899 329.861 113.599 329.818 113.342C329.347 109.49 329.132 105.637 329.132 101.699C329.175 97.718 329.475 93.737 330.076 89.7132C330.676 85.6894 331.577 81.6656 332.692 77.6419C334.623 70.8357 337.711 64.3719 342.001 58.2934C344.102 55.2114 346.505 52.3862 349.207 49.775C351.952 47.2066 354.955 45.0663 358.258 43.3969C361.561 41.6846 364.906 40.6145 368.381 40.1864C369.196 40.1008 370.054 40.058 370.912 40.058C371.169 40.058 371.426 40.058 371.684 40.058C371.855 40.1008 371.984 40.1008 372.113 40.1008C372.199 40.1008 372.284 40.1008 372.37 40.1008C372.499 40.1008 372.627 40.1436 372.756 40.1436L373.357 40.2292C374.987 40.4433 376.488 40.8285 377.904 41.4706C380.778 42.7976 382.879 44.8523 384.123 47.7203C384.724 49.1329 385.024 50.6311 385.11 52.2578C385.11 52.3006 385.11 52.3006 385.11 52.3434C385.11 52.7286 385.11 53.0711 385.11 53.4563C385.11 53.6276 385.11 53.756 385.11 53.9272C385.11 54.1841 385.067 54.4409 385.067 54.6977L384.981 55.9391L384.853 57.2233C384.381 60.5622 383.566 63.9011 382.365 67.2399C381.764 68.8666 381.078 70.536 380.306 72.1627C379.963 72.976 379.534 73.7893 379.148 74.5598L377.904 76.9998C376.188 80.2102 374.257 83.2923 372.027 86.2459C369.796 89.2423 367.437 92.0676 364.906 94.85C359.845 100.329 354.483 105.552 348.821 110.517L347.791 111.459L346.719 112.401L344.574 114.241C343.373 115.311 342.086 116.381 340.842 117.409C340.671 117.58 340.499 117.708 340.285 117.88C337.539 120.32 334.623 122.46 331.577 124.386Z" fill="#586157"/>
<path d="M361.775 134.959C363.92 134.146 365.936 133.076 367.823 131.749C368.209 131.535 368.552 131.278 368.939 131.064C369.239 130.936 369.496 130.85 369.754 130.85C369.968 130.85 370.182 130.936 370.354 131.15C370.397 131.192 370.44 131.278 370.483 131.364C370.526 131.406 370.526 131.406 370.569 131.449L370.783 131.835C370.869 132.006 370.997 132.177 371.126 132.348C371.169 132.434 371.212 132.477 371.255 132.519C371.598 132.99 371.984 133.376 372.456 133.718C372.971 134.06 373.528 134.274 374.172 134.317C375.459 134.403 376.745 134.189 377.989 133.761C379.276 133.418 380.52 132.947 381.764 132.391C383.008 131.877 384.209 131.278 385.41 130.636C386.011 130.293 386.568 129.951 387.169 129.566C387.769 129.223 388.327 128.838 388.842 128.367L388.885 128.41L389.271 128.068C389.399 127.939 389.528 127.811 389.7 127.682C389.7 127.682 389.7 127.64 389.743 127.64C389.743 127.64 389.785 127.597 389.828 127.554C389.828 127.554 389.871 127.511 389.914 127.468C389.957 127.383 389.957 127.254 390 127.169C390 127.04 390 126.955 389.957 126.869C389.871 126.783 389.828 126.741 389.743 126.698C389.614 126.655 389.485 126.612 389.314 126.655C389.271 126.655 389.185 126.655 389.099 126.698C389.056 126.741 389.013 126.741 389.013 126.783C388.97 126.783 388.97 126.783 388.928 126.783H388.97C388.842 126.869 388.713 126.912 388.627 126.997C388.584 127.04 388.542 127.04 388.499 127.083L388.07 127.383L387.212 127.939C386.654 128.324 386.096 128.71 385.539 129.052C384.381 129.78 383.223 130.465 382.021 131.021C380.778 131.663 379.576 132.049 378.333 132.22C377.046 132.348 375.93 132.177 375.03 131.578C374.601 131.278 374.3 130.85 374.129 130.293C373.957 129.823 373.871 129.266 373.829 128.71C373.829 128.71 373.786 128.667 373.786 128.624C373.786 128.025 373.614 127.468 373.357 126.912C373.185 126.612 372.928 126.441 372.585 126.355C372.241 126.27 371.898 126.313 371.555 126.398C370.869 126.655 370.268 126.955 369.668 127.297C369.067 127.64 368.51 128.025 367.952 128.453C367.866 128.496 367.823 128.538 367.737 128.581C367.266 128.924 366.794 129.266 366.279 129.609C366.15 129.694 365.979 129.78 365.807 129.865C365.679 129.951 365.55 130.037 365.421 130.122C365.121 130.336 364.821 130.508 364.563 130.722C363.448 131.535 362.29 132.134 361.089 132.477C361.046 132.477 361.003 132.477 360.96 132.519C360.874 132.519 360.746 132.562 360.66 132.562H360.445C360.402 132.562 360.36 132.562 360.317 132.605L360.274 132.562C360.188 132.562 360.145 132.519 360.102 132.477C360.059 132.391 360.059 132.305 360.102 132.22C360.102 132.177 360.145 132.134 360.188 132.091L360.36 131.92L360.703 131.535C360.746 131.492 360.788 131.449 360.831 131.406C361.003 131.192 361.175 131.021 361.389 130.807C362.333 129.865 363.405 129.009 364.52 128.282C365.636 127.554 366.794 126.955 368.038 126.484C369.239 126.013 370.483 125.713 371.727 125.585C372.928 125.414 374.129 125.414 375.33 125.542C375.501 125.585 375.716 125.628 375.888 125.628C375.973 125.67 376.102 125.67 376.188 125.713C376.231 125.713 376.274 125.713 376.359 125.713C376.445 125.756 376.531 125.756 376.617 125.756L377.046 125.884L377.475 125.97C377.518 125.97 377.56 126.013 377.603 126.013C377.689 126.056 377.818 126.056 377.989 126.056C378.247 126.056 378.461 125.97 378.676 125.799C378.89 125.628 379.019 125.414 379.105 125.157C379.105 125.028 379.105 124.943 379.105 124.814C379.062 124.686 379.019 124.6 378.976 124.515C378.847 124.386 378.761 124.301 378.676 124.172C378.418 124.001 378.204 123.83 377.904 123.659C377.346 123.402 376.788 123.23 376.145 123.145C373.7 122.802 371.169 122.974 368.595 123.616C365.979 124.301 363.534 125.456 361.217 127.083C360.059 127.854 358.987 128.71 357.957 129.651C357.4 130.079 356.928 130.593 356.456 131.15C355.984 131.749 355.727 132.391 355.641 133.119C355.598 133.461 355.641 133.804 355.77 134.103C355.856 134.403 355.984 134.66 356.199 134.874C356.671 135.345 357.228 135.601 357.915 135.601C358.558 135.601 359.201 135.559 359.845 135.43C360.488 135.345 361.132 135.173 361.775 134.959Z" fill="#586157"/>
</svg>
